<svg xmlns="http://www.w3.org/2000/svg" viewBox="0 0 96 96" role="img" aria-labelledby="title desc">
  <title id="title">Bicol Indigenous Peoples Hub logo</title>
  <desc id="desc">A circular emblem with a sun, mountain, river, and woven pattern.</desc>
  <defs>
    <linearGradient id="bg" x1="0%" x2="100%" y1="0%" y2="100%">
      <stop offset="0%" stop-color="#183926" />
      <stop offset="55%" stop-color="#0f2216" />
      <stop offset="100%" stop-color="#c36b2a" />
    </linearGradient>
    <linearGradient id="sun" x1="0%" x2="100%" y1="0%" y2="100%">
      <stop offset="0%" stop-color="#ffd68c" />
      <stop offset="100%" stop-color="#c36b2a" />
    </linearGradient>
  </defs>
  <circle cx="48" cy="48" r="44" fill="url(#bg)" />
  <circle cx="48" cy="48" r="40" fill="none" stroke="#f3e4bf" stroke-width="3" opacity="0.95" />
  <circle cx="48" cy="29" r="11" fill="url(#sun)" />
  <path d="M18 60 34 43l9 10 7-8 18 15v9H18Z" fill="#f3e4bf" opacity="0.92" />
  <path d="M24 66c6-5 13-8 24-8s18 3 24 8" fill="none" stroke="#6db08a" stroke-linecap="round" stroke-width="5" />
  <path d="M26 73h44" stroke="#f3e4bf" stroke-linecap="round" stroke-width="4" />
  <path d="M28 18v8M68 18v8M20 31h8M68 31h8M29 75l6-6M61 69l6 6" fill="none" stroke="#f3e4bf" stroke-linecap="round" stroke-width="3" opacity="0.8" />
  <path d="M33 78h30" stroke="#c36b2a" stroke-linecap="round" stroke-width="3" />
</svg>
